<svg width="46" height="48" xmlns="http://www.w3.org/2000/svg">
  <rect fill="#81b3d2" height="48" width="46"/>
     <path stroke="null" fill="#ffffff" d="m25.71447,14.50853c1.7571,-0.5762 3.20412,0.23048 3.82427,1.26763c0.72351,-0.23048 1.44702,-0.5762 2.17053,-0.80667c0,0.92191 -0.51679,1.72859 -0.93023,1.95907c0.72351,0.23048 1.34366,-0.5762 1.34366,-0.5762c-0.20672,1.15239 -1.03359,1.95907 -1.65374,2.30478c-0.20672,7.60575 -3.41083,12.67627 -10.7493,12.44579c-0.51679,0 0.10336,0 -0.51679,0c-0.41343,0 -4.44442,-0.46096 -5.16793,-2.0743c2.37725,0.23048 4.13434,-0.46096 4.96121,-1.26763c-1.03359,-0.34572 -2.89404,-0.5762 -3.20412,-3.3419c0.41343,0.11524 0.62015,0.23048 1.34366,0.11524c-1.2403,-0.92191 -2.68732,-1.72859 -2.58397,-4.26385c0.31008,0.34572 1.13694,0.5762 1.44702,0.5762c-0.72351,-0.23048 -2.06717,-3.80289 -0.93023,-5.53148c1.96381,2.0743 3.92763,4.03337 7.64854,4.26385c0.10336,-2.6505 1.13694,-4.37909 2.9974,-5.07052z"/>
   </svg>
