<svg width="46" height="48" xmlns="http://www.w3.org/2000/svg">
  <rect fill="#81b3d2" height="48" width="46"/>
  <path stroke="null" fill="#ffffff" d="m25.77237,16.40227c0.79652,0 1.59303,0 2.38955,0c0,-1.11165 0,-2.22329 0,-3.436c-0.99564,0 -1.89173,0 -2.88737,0c-3.0865,0.20212 -4.28127,2.42541 -3.88302,6.16458l-1.89173,0l0,3.53706l1.99129,0c0,3.13282 0,6.26564 0,9.39846c1.29434,0 2.58868,0 3.78345,0c0,-3.13282 0,-6.26564 0,-9.39846l2.88737,0l0,-3.53706l-2.88737,0c0,-1.01059 0,-2.42541 0.49782,-2.72859z"/>
  </svg>
